<svg id="Layer_1" data-name="Layer 1" xmlns="http://www.w3.org/2000/svg" xmlns:xlink="http://www.w3.org/1999/xlink" viewBox="0 0 740.69 453.74"><defs><style>.cls-1{fill:none;}.cls-2{fill:#0e1116;}.cls-3{fill:#2d353d;}.cls-4{fill:#151a21;}.cls-5{fill:#15191f;}.cls-6{opacity:0.05;isolation:isolate;}.cls-7{fill:#0b0e13;}.cls-8{clip-path:url(#clip-path);}</style><clipPath id="clip-path" transform="translate(-0.6 0.2)"><polygon class="cls-1" points="-79.54 162.67 172.81 205.78 215.92 -46.57 -36.42 -89.68 -79.54 162.67 -79.54 162.67"/></clipPath></defs><title>bg1</title><path class="cls-2" d="M278.81,52.19a29.84,29.84,0,0,0-12.28,5.34c-1.8-2.37-3.55-4.45-4.09-6.12a18,18,0,0,1-1.29-5.53c-.13-2.44.65-6.08.57-6.34s-.58-1.41-3.43-.92-5.2,1.52-5.34,2.32a31.37,31.37,0,0,0-.42,4.44c0,2.67-3.51,12.86-5.59,18.24a16.41,16.41,0,0,1-4.15-10,49.58,49.58,0,0,1,.57-6.34c-.07-.25-.58-1.41-3.43-.92s-5.2,1.52-5.35,2.32-.13,2.62-.41,4.44-4.35,18.49-5.42,22.81c-.56,2.21-1.06,4-1.42,5.2h0a2.14,2.14,0,0,1-.07.23c-.31,1-.5,1.62-.5,1.62v0c-.26.77-.55,1.49-.76,1.53s-.78-1.78-.76-4.4c0-5.55,1-14.32.9-14.6s.17-1.69-2-2.06a2.61,2.61,0,0,0-2.83,1c-.18,0-.23.5-.23.5s.53-9.78-6-8.57c-4.09.75-8.9,6.26-10.95,10.81-1.58,1.28-5,4-8.56,6.94-1.37,1.14-2.79,2.28-4.11,3.35-.13-.08-.25-.19-.37-.27-9.47-7-25.2-10.28-26.67-21.75-.53-4.17-1.11-15.29,22.91-33.35C207.08,7.39,225,7.18,229.16,13.22c6,8.62-4.33,28.6-26.36,35.27-8.41,2.54-13.52.06-14.88-1s-1.62-1.11-2-.77c-.65.52,0,1.59.41,2.22,1,1.63,4.34,4.23,9.3,4.89,4.38.58,14.58-.52,25.89-7.46C234.15,38.6,242.1,22,236.72,10.28c-5.43-11.89-26.87-12.19-45.16-1.63-10.87,6.27-22.29,15.11-29.8,25.26-8.93,12.07-9,21.15-7.65,24.69,4.91,12.57,24.44,17.74,32.78,22.7-.32.28-.62.52-.88.73-3.26,2.44-15.65,12.13-17.67,20.33-2.29,9.3,3.34,14.62,6.46,14.9,9.7.86,18.34-5.49,22-14s1.25-18.3-1.93-22.39a.8.8,0,0,0-.13-.13l2.51-2.18c1.64-1.42,3.26-2.76,4.66-3.87a34.14,34.14,0,0,0-.1,9.74c.5,4.94,3.65,10.88,6.72,12.88a4.76,4.76,0,0,0,3.62.48c3.05-.56,3.95-3.35,4.93-6.62,1.18-4,2.08-8.59,2.08-8.59s0,11.91,5.72,10.87c2.06-.39,3.66-3.46,4.34-5v0l.1-.28.24-.61v0c.56-1.6,1.82-5.23,3.58-11.19,2.27-7.69,4.09-17.11,4.09-17.11a45.94,45.94,0,0,0,2.43,5.46,55,55,0,0,0,4.16,6.08c-.61,1.31-1,2.05-1,2.05l0,0c-.51,1-1.06,2.1-1.69,3.17-2.2,3.88-4.85,8.36-5.11,9.55-.3,1.42,0,2.35,1.18,2.94a5.74,5.74,0,0,0,3.57-.07,16.26,16.26,0,0,0,5-2.15,17.64,17.64,0,0,0,4-3.17,10.19,10.19,0,0,0,2.67-9.61,18.26,18.26,0,0,0-2.78-5.93c.19-.41.36-.81.55-1.22a119.13,119.13,0,0,0,5.29-14.82A45.94,45.94,0,0,0,258,57a40,40,0,0,0,3.55,5.23,25,25,0,0,0-5.76,11.13c-.76,5,.9,6.89,3.39,6.94a7.3,7.3,0,0,0,3.64-1.47,17.66,17.66,0,0,0,4.33-3.33c2.39-2.56,4.53-5.89,3.66-9.71a16.72,16.72,0,0,0-2.14-5,27.53,27.53,0,0,1,13.44-4.1c12.57-.82,16.42,6.41,16.55,9.73a8.32,8.32,0,0,1-2.89,6.25c-.75.7-1,.94-.86,1.31.21.55.62.45,1.33.21,1-.37,6-3.8,5.12-9.79C300.36,56.73,291.59,49.76,278.81,52.19Zm-89.05,49.49c-3.26,5.2-8.64,7.92-11.36,6.95-2.92-1-3.09-7.79,1.06-13.42a66.3,66.3,0,0,1,8.27-8.93l2.25-2,.26-.21h0l.55-.5A18,18,0,0,1,189.76,101.68Zm26-25.69c-.78,3.72-2.12,13.14-4,13-1.63-.13-3.82-6.67-2.85-13.72a32,32,0,0,1,3.2-9.76c1.77-2.89,4.07-4.17,4.85-3.27C218,63.4,216.25,73.65,215.77,76Zm26.7,7.22c-.54.42-1.07.73-1.36.62s.17-.56.17-.56,2.46-3.88,3.4-5.6c.54-1,1.18-2.2,1.84-3.52l.06.33C247.31,78.44,244,81.81,242.47,83.21Zm18.13-7.8c-.5-.23-.61-1.28.27-4.78a17.45,17.45,0,0,1,3.21-6.21,7.43,7.43,0,0,1,.85,2.3C265.83,71.72,262.6,74.24,260.6,75.41Z" transform="translate(-0.6 0.2)"/><rect class="cls-2" x="515.96" y="333.78" width="39.44" height="39.44" transform="translate(-60.9 115.52) rotate(-11.64)"/><rect class="cls-2" x="557.97" y="325.13" width="39.44" height="39.44" transform="translate(-58.29 123.82) rotate(-11.64)"/><rect class="cls-2" x="524.61" y="375.8" width="39.44" height="39.44" transform="translate(-69.19 118.13) rotate(-11.64)"/><rect class="cls-2" x="566.62" y="367.14" width="39.44" height="39.44" transform="translate(-66.58 126.43) rotate(-11.64)"/><path class="cls-2" d="M268.76,342a1.5,1.5,0,0,1,0,.42l-5.28,21.7a1.6,1.6,0,0,1-1.12,1.18l-20.76,6.06-5.05,20.78a1.66,1.66,0,0,1-1.13,1.18L192.06,406a1.67,1.67,0,0,1-.31,0l-.12,0a1.65,1.65,0,0,1-.81-.2l-.11-.08a1.24,1.24,0,0,1-.23-.17l-32.69-31.12a1.62,1.62,0,0,1-.46-1.56l15.81-65.09a1.76,1.76,0,0,1,.16-.4.54.54,0,0,1,.09-.12,1.25,1.25,0,0,1,.16-.22.81.81,0,0,1,.14-.12l.19-.15.18-.08a1.33,1.33,0,0,1,.21-.09h0l21.66-6.32a1.61,1.61,0,0,1,1.58.38l16.35,15.56h0a.79.79,0,0,1,.14.18l.13.15c0,.07.06.15.1.22s.05.11.07.17a1.26,1.26,0,0,1,0,.27l0,.15a2,2,0,0,1-.05.42l-9.88,40.66,18.05-5.27,5-20.78a1.76,1.76,0,0,1,.16-.4.54.54,0,0,1,.09-.12,1.25,1.25,0,0,1,.16-.22.81.81,0,0,1,.14-.12,1.39,1.39,0,0,1,.19-.15l.18-.08a1.33,1.33,0,0,1,.21-.09h0l21.66-6.32a1.61,1.61,0,0,1,1.58.38l16.35,15.56a1.24,1.24,0,0,1,.14.18l.13.15a2,2,0,0,1,.09.22,1.3,1.3,0,0,1,.08.17,2.51,2.51,0,0,1,0,.27A.77.77,0,0,1,268.76,342Zm-8.26,20.43,4.38-18-7.58,2.21-10.47,3.06-4.38,18,18.05-5.27Zm-26.93,28L238,372.42l-10.29,3-29.38,8.46-4.43,18.23Zm-57.92-79.13-14.93,61.43,30,28.52,4.43-18.22-15.7-14.72h0c-.05,0-.09-.12-.14-.17a1.58,1.58,0,0,1-.12-.15h0a1.21,1.21,0,0,1-.09-.2.71.71,0,0,1-.08-.18h0a.78.78,0,0,1,0-.22,1.25,1.25,0,0,1,0-.19h0a1.94,1.94,0,0,1,0-.24c0-.06,0-.13,0-.19h0l10.33-42.48-7.9-7.52-5.72-5.44Zm20.3-7.62-18,5.26,13.61,13,18.05-5.26-13.62-13Zm-5.59,58.88,10.47-3.06,9.66-39.74L202.91,322l-10.48,3.05-9.65,39.74Zm60-34.27-18,5.26,13.62,13,18-5.26Zm-6.68,20.58-7.91-7.52L230,336l-4.38,18,7.9,7.52,5.72,5.44Zm-46.31,31.81,26.44-7.62L237,369.3l-13.61-12.95-20.76,6.06-18.92,5.52Z" transform="translate(-0.6 0.2)"/><path id="path6965" class="cls-2" d="M708.22,124.51l-4.71-22,18-9.84-4.19-1.91-14.62,8-3.51-16.31L695,80.58l4.31,20L679.61,111.5l4.19,1.91,16.31-9L704,122.63l4.19,1.91" transform="translate(-0.6 0.2)"/><path id="path6967" class="cls-2" d="M625.08,86.59l-4.68-22,17.93-9.86-4.16-1.9-14.62,8L616,44.57l-4.18-1.91,4.33,20L596.47,73.58l4.19,1.91,16.33-9,3.89,18.22,4.19,1.91" transform="translate(-0.6 0.2)"/><path id="path6969" class="cls-2" d="M641.2,90l-9.33-4.25,5.2-11.41,9.33,4.25c3.55,1.62,7.33,4.49,5.28,9C649.31,92.74,644.08,91.28,641.2,90Zm2-29.07,9.33,4.25C655,66.3,659,68.85,657,73.22c-1.5,3.29-4.87,4.14-9.16,2.18l-9.32-4.25Zm12,21a9.11,9.11,0,0,0-1.48-2.26,7.82,7.82,0,0,0,6.66-4.53c.92-2,3.15-8.87-6.41-13.23L641.11,56l-6.18,13.54-4.29-2c-.89.46-2.93,1.61-3.74,2.08l6.6,3-6.7,14.7,12.87,5.87c7,3.19,12.94,1.65,15.52-4a8.27,8.27,0,0,0,0-7.34" transform="translate(-0.6 0.2)"/><path id="path6971" class="cls-2" d="M669,103.44c-6.81-3.11-9.11-10.65-5.6-18.36s10.72-10.9,17.53-7.8,9.06,10.62,5.54,18.33S675.73,106.53,669,103.44ZM682.39,74c-8.94-4.08-18.23-.19-22.63,9.47s-1.26,19.23,7.68,23.31,18.17.16,22.58-9.5S691.28,78,682.39,74" transform="translate(-0.6 0.2)"/><g id="g4146"><path id="path4148" class="cls-2" d="M672.85,55.64A29.22,29.22,0,0,1,662.92,46c-2.1-3.33-2.41-4.44-1.68-6.05,1.47-3.22,7.59-7.26,16.58-10.93,5.11-2.09,11.86-4.19,12.32-3.84.91.69,5.38,12.23,6.7,17.31,2.1,8,2.11,13.84,0,15.47-1.59,1.23-8.29,2-12.71,1.47A32,32,0,0,1,672.85,55.64ZM658.73,34.79c-.75-5-.29-9.3,1.58-15,.62-1.89,1.16-2.89,3.43-6.31A29.35,29.35,0,0,1,676.25,3.22c2-.78,2.11-.76,3.49.53,1.68,1.58,3.13,4,5.06,8.47l1.12,2.61-1.63.81c-7.59,3.76-16.57,9.89-20.89,14.24-2.35,2.37-4.07,5-4.16,6.43C659.18,37.25,659,36.82,658.73,34.79Zm43.39,20.58a14.39,14.39,0,0,0,1.78-6c.62-5.54-.56-16.92-2.63-25.23l-.65-2.61,2.35-.77A38,38,0,0,1,710.14,19a11.1,11.1,0,0,1,4.55.27c.49.22,1.38,2.76,1.87,5.31A30.59,30.59,0,0,1,716.31,37a37.88,37.88,0,0,1-4.51,10.1,35.74,35.74,0,0,1-4.88,5.42A39.22,39.22,0,0,1,702,55.94c-.52.26-.52.26.08-.57ZM694.65,9a36.13,36.13,0,0,0-6.37-6.16,15.6,15.6,0,0,0-2.47-1.3c-1.61-.64-1.5-.68,1.57-.72a28.38,28.38,0,0,1,7.16.76,35.16,35.16,0,0,1,10.33,4.7A31.76,31.76,0,0,1,711.56,13l.4.6-1.25-.65c-2.5-1.3-6.68-2-11.57-1.84a22.49,22.49,0,0,1-2.8,0C696.28,11,695.51,10.1,694.65,9Z" transform="translate(-0.6 0.2)"/></g><path class="cls-2" d="M601.44,270.07a17.22,17.22,0,1,1-13.83-20.33A17.15,17.15,0,0,1,601.44,270.07ZM594,268.74c1.12-6.22-2.53-11.27-7.65-12.19s-10.29,2.54-11.41,8.75,2.52,11.27,7.64,12.19S592.92,274.89,594,268.74Z" transform="translate(-0.6 0.2)"/><path class="cls-2" d="M638,276.66a17.23,17.23,0,1,1-13.84-20.34A17.15,17.15,0,0,1,638,276.66Zm-7.42-1.34c1.12-6.21-2.52-11.26-7.64-12.19s-10.3,2.54-11.42,8.76,2.52,11.27,7.64,12.19S629.48,281.47,630.59,275.32Z" transform="translate(-0.6 0.2)"/><path class="cls-2" d="M676,266.73l-5.59,31c-2.3,12.77-10.59,16.66-19.29,15.09A16.36,16.36,0,0,1,638,300l6.95-1.59c.65,3,2.87,6.85,7.41,7.67,5.56,1,9.65-1.89,10.84-8.51l.45-2.49-.26,0a11.6,11.6,0,0,1-9.61,2.32c-8.44-1.52-14.83-10.44-13.08-20.13s10.86-15.95,19.31-14.43a11.77,11.77,0,0,1,8.2,5.47l.26,0,.51-2.81,7,1.27Zm-9.45,15.13c1.09-6.08-2.07-11.25-7.12-12.16s-10.21,2.76-11.31,8.84,2.41,11.19,7.53,12.11S665.43,287.89,666.52,281.86Z" transform="translate(-0.6 0.2)"/><path class="cls-2" d="M690.87,250.64l-9.13,50.65-7.23-1.3,9.12-50.66Z" transform="translate(-0.6 0.2)"/><path class="cls-2" d="M711.84,295.84l5,5a17,17,0,0,1-15.46,5.13c-9.59-1.73-15.39-10.62-13.65-20.31,1.85-10.28,10.34-16,19.05-14.41s11.77,9.49,12.48,13.6l.41,2.1-24.31,5.5c1.11,3.78,3.48,6,7.25,6.71s6.74-.75,9.18-3.28Zm-16.61-9.42,16.26-3.69c-.44-2.31-2.67-4.26-5.61-4.79A9.55,9.55,0,0,0,695.23,286.42Z" transform="translate(-0.6 0.2)"/><path class="cls-2" d="M541,254.54l1.32-7.34,24.15,4.35a24.46,24.46,0,0,1-.44,4.5c-1,5.5-3.69,12-9.3,16s-11.85,5.64-19.65,4.23a27.27,27.27,0,0,1,9.67-53.68,25.12,25.12,0,0,1,16.65,10.64l-6,4.26a18.38,18.38,0,0,0-12-7.57c-10.56-1.9-20.38,5.32-22.33,16.12s4.75,21,15.3,22.9a17.65,17.65,0,0,0,14.22-3c2.4-1.7,4.26-4.43,5.52-8.38Z" transform="translate(-0.6 0.2)"/><g id="Page-1"><g id="Fill-1-_-Group-24" data-name="Fill-1-+-Group-24"><g id="Group-24"><g id="Group"><path id="Fill-4" class="cls-2" d="M665.83,228.8h0l29.29-50.58L660,170.64l5.84,58.16Z" transform="translate(-0.6 0.2)"/><path id="Fill-6" class="cls-2" d="M637.16,130" transform="translate(-0.6 0.2)"/><path id="Fill-8" class="cls-2" d="M665.83,228.8,660,170.64l-24.62-5.31Z" transform="translate(-0.6 0.2)"/><path id="Fill-10" class="cls-2" d="M637.16,130" transform="translate(-0.6 0.2)"/><path id="Fill-12" class="cls-2" d="M635.37,165.33h0l-8.9,15.37a3.77,3.77,0,0,0,.44,4.38l38.92,43.72Z" transform="translate(-0.6 0.2)"/><path id="Fill-14" class="cls-2" d="M637.16,130" transform="translate(-0.6 0.2)"/><path id="Fill-16" class="cls-2" d="M635.37,165.33,660,170.64l-3.52-35a1.86,1.86,0,0,0-3.46-.74Z" transform="translate(-0.6 0.2)"/><path id="Fill-18" class="cls-2" d="M665.83,228.8l29.29-50.58,24.62,5.31Z" transform="translate(-0.6 0.2)"/><path id="Fill-20" class="cls-2" d="M719.74,183.53h0l1.78,17.67a3.77,3.77,0,0,1-2.2,3.81L665.83,228.8Z" transform="translate(-0.6 0.2)"/><path id="Fill-22" class="cls-2" d="M719.74,183.53l-24.62-5.31,17.65-30.47a1.86,1.86,0,0,1,3.46.75Z" transform="translate(-0.6 0.2)"/></g></g></g></g><path class="cls-2" d="M583.1,37.77c-.43-.21-4.28-1.85-11.21-.11a34.58,34.58,0,0,0-5.32,1.85C563,30.69,554.26,28.17,553.9,28l-2.12-.61-.76,2a26.29,26.29,0,0,0-1.37,8.48,18.72,18.72,0,0,0,5.74,13.74c-2.72,2.59-7.75,4.3-8.81,4.63L461.7,77.6a4.11,4.11,0,0,0-3,5,62.25,62.25,0,0,0,9.18,20.88C472.74,110.41,478.53,115,485,117c7.31,2.3,18.2,1.91,29.86-1a89.74,89.74,0,0,0,15.36-5.39A66.9,66.9,0,0,0,548.92,98,58,58,0,0,0,560,83c4.84-9.29,6.72-18.78,7.75-27l1.2-.3c7.35-1.85,11.16-5.92,13-9.06A16.38,16.38,0,0,0,584.43,40l.15-1.69Z" transform="translate(-0.6 0.2)"/><path class="cls-2" d="M471.78,72.46l11.36-2.85a1,1,0,0,0,.76-1.27h0l-2.55-10.16a1,1,0,0,0-1.28-.76h0l-11.35,2.85a1,1,0,0,0-.76,1.27h0l2.55,10.16a1.07,1.07,0,0,0,1.27.76h0" transform="translate(-0.6 0.2)"/><path class="cls-2" d="M487.44,68.53l11.36-2.85a1.05,1.05,0,0,0,.76-1.28h0L497,54.24a1,1,0,0,0-1.27-.76h0l-11.35,2.85a1,1,0,0,0-.76,1.28l2.55,10.16a1.08,1.08,0,0,0,1.27.76" transform="translate(-0.6 0.2)"/><path class="cls-2" d="M503.4,64.52l11.35-2.85a1,1,0,0,0,.76-1.27h0L513,50.24a1,1,0,0,0-1.27-.76h0l-11.35,2.85a1,1,0,0,0-.76,1.27h0l2.55,10.16a1,1,0,0,0,1.27.76h0" transform="translate(-0.6 0.2)"/><path class="cls-2" d="M519.12,60.57l11.35-2.85a1,1,0,0,0,.76-1.27l-2.55-10.16a1,1,0,0,0-1.27-.76h0l-11.35,2.85a1,1,0,0,0-.77,1.27h0l2.56,10.16a1,1,0,0,0,1.27.76h0" transform="translate(-0.6 0.2)"/><path class="cls-2" d="M483.79,54l11.36-2.85a1.08,1.08,0,0,0,.76-1.27l-2.55-10.16a1,1,0,0,0-1.27-.76h0l-11.36,2.85a1,1,0,0,0-.76,1.27l2.55,10.16a1.11,1.11,0,0,0,1.27.76" transform="translate(-0.6 0.2)"/><path class="cls-2" d="M499.75,50l11.36-2.86a1.09,1.09,0,0,0,.76-1.27l-2.55-10.16A1,1,0,0,0,508,35h0L496.69,37.8a1,1,0,0,0-.76,1.27h0l2.55,10.17a1,1,0,0,0,1.27.76" transform="translate(-0.6 0.2)"/><path class="cls-2" d="M515.47,46.05l11.36-2.85a1.1,1.1,0,0,0,.76-1.27L525,31.76a1.1,1.1,0,0,0-1.28-.76l-11.35,2.86a1,1,0,0,0-.76,1.27h0l2.55,10.16a1.08,1.08,0,0,0,1.27.76" transform="translate(-0.6 0.2)"/><path class="cls-2" d="M511.81,31.46l11.35-2.85a1,1,0,0,0,.76-1.27l-2.55-10.16a1.08,1.08,0,0,0-1.27-.76l-11.35,2.85a1,1,0,0,0-.77,1.27h0l2.56,10.16a1.07,1.07,0,0,0,1.27.76" transform="translate(-0.6 0.2)"/><path class="cls-2" d="M535,56.59l11.35-2.85a1,1,0,0,0,.76-1.27l-2.55-10.16a1,1,0,0,0-1.27-.76h0L531.89,44.4a1,1,0,0,0-.76,1.27h0l2.55,10.16a1.08,1.08,0,0,0,1.28.76" transform="translate(-0.6 0.2)"/><path class="cls-2" d="M17.81,295.19A24.31,24.31,0,0,0,3.57,317.14c0,3.4.41,5.28,6.87,30,5.89,22.67,6,23.19,6.87,24.85a24.4,24.4,0,0,0,23.07,13.67c1.32,0,2.91-.39,13.12-3,10.57-2.64,11.66-2.94,11.87-3.29s-.71-4-11.32-45.23C46.19,303.58,42.43,289.2,42.23,289s-.6-.23-11.64,2.63C21.63,293.93,19,294.68,17.81,295.19ZM46.5,336l9.83,38.17-7.7,1.88c-7.08,1.74-7.85,1.9-9.35,1.91a16.53,16.53,0,0,1-15-9.28c-.9-1.8-13-48.68-13-50.65A16.7,16.7,0,0,1,18,303.89c2.23-1.64,3.35-2.05,11.41-4.14l7.29-1.9Z" transform="translate(-0.6 0.2)"/><path class="cls-2" d="M24.21,313.34a10.36,10.36,0,0,0-3.45,3,8.62,8.62,0,0,0-1,7.74A6.12,6.12,0,0,0,21.33,327a8.79,8.79,0,0,0,5.09,3,6.06,6.06,0,0,0,3.42-.07,7.09,7.09,0,0,0,2.93-1.12,8.78,8.78,0,0,0,3.43-10.93A8.92,8.92,0,0,0,24.21,313.34Z" transform="translate(-0.6 0.2)"/><path class="cls-2" d="M51.54,286.33c-.07.08,5.13,20.52,11.54,45.43,10.58,41.1,11.67,45.26,12,45.3.56.05,15.16-3.78,16.92-4.44a24.25,24.25,0,0,0,14.87-17.08,31,31,0,0,0,.57-3.67c.27-3.84.48-2.89-6.49-30-5.56-21.61-6.43-24.82-7.05-26.13a24.15,24.15,0,0,0-24-14c-1.37.11-3.42.58-10,2.27C55.33,285.22,51.57,286.25,51.54,286.33ZM82.22,322.2a9.47,9.47,0,0,1,7.84,4.25,10.17,10.17,0,0,1,1.53,6,9.44,9.44,0,0,1-17.53,4,11.11,11.11,0,0,1-1.29-5.33A9.43,9.43,0,0,1,82.22,322.2Z" transform="translate(-0.6 0.2)"/><path class="cls-2" d="M366.07,168.13,352.82,170l5.88,41-5.37.77-5.88-40.95-13.25,1.9-.71-4.9,31.76-4.55.71,4.89Z" transform="translate(-0.6 0.2)"/><path class="cls-2" d="M392.69,172.72l-9.59,40.13c-1.77,7.2-5,11.07-9.89,11.78a14.77,14.77,0,0,1-3.51.13l-.67-4.65a10.28,10.28,0,0,0,3.19.15c2.62-.38,4.43-2.22,5.28-5.63l1.74-6.59-17.47-30.88,5.85-.84,12.45,23.92c.17.35.53,1.15,1.07,2.41l.24,0c.05-.49.17-1.36.26-2.47l5.68-26.65Zm12.86,26.79-.12,0,2.85,19.82-5.26.75-6.85-47.76,5.25-.75.82,5.73.12,0c2-4.67,5.39-7.47,10.4-8.19,4.18-.6,7.73.35,10.55,3s4.56,6.29,5.28,11.31c.79,5.49.11,10.1-2.06,13.7a13.6,13.6,0,0,1-10.28,6.47A11.16,11.16,0,0,1,405.55,199.51Zm-2-13.24.65,4.54a9.78,9.78,0,0,0,3.62,6.55,8.75,8.75,0,0,0,7.1,1.9,8.9,8.9,0,0,0,7-4.78c1.55-2.78,1.91-6.24,1.29-10.54-.53-3.7-1.76-6.33-3.74-8.24a8.48,8.48,0,0,0-7.25-2.12,9.4,9.4,0,0,0-6.94,4.28,11.68,11.68,0,0,0-1.72,8.41Zm57.72-5.36-23.16,3.33c.65,3.68,2,6.29,4.2,8s4.85,2.35,8.19,1.87A15.86,15.86,0,0,0,460.1,189l.7,4.89c-2.56,2.56-6.24,4.07-11,4.75s-8.44-.25-11.5-2.85-5-6.6-5.74-12c-.73-5.13.12-9.39,2.52-13a13.89,13.89,0,0,1,10.06-6.32c4.3-.62,7.85.34,10.51,2.76s4.41,6.07,5.13,11.08l.37,2.63.12,0Zm-6-3.64a10.61,10.61,0,0,0-3.16-6.74,7.56,7.56,0,0,0-6.33-1.65,8.61,8.61,0,0,0-5.95,3.53,13.16,13.16,0,0,0-2.23,7.39ZM466.05,194l-.51-3.58A18.1,18.1,0,0,0,476,192.07c3.59-.51,6.23-1.62,7.8-3.43a7.38,7.38,0,0,0,1.85-6.6A7.87,7.87,0,0,0,483,176.7c-1.4-1.26-4.42-2.78-8.94-4.57-5.06-2.07-8.37-3.91-9.82-5.53a11.5,11.5,0,0,1-2.82-6.06,10.89,10.89,0,0,1,2.64-8.78c2.18-2.63,5.37-4.19,9.55-4.79a25.37,25.37,0,0,1,8.45.25l.48,3.35a21.56,21.56,0,0,0-8.86-.56,11.17,11.17,0,0,0-7.06,3.45,7.75,7.75,0,0,0-1.89,6.37,7.92,7.92,0,0,0,2.72,5.33c1.4,1.26,4.4,2.66,8.92,4.45s7.82,3.51,9.53,5.21a10.73,10.73,0,0,1,3.09,6.26,11.2,11.2,0,0,1-2.47,9.13c-2.06,2.61-5.37,4.18-9.91,4.83a25.39,25.39,0,0,1-5.59.07,31.51,31.51,0,0,1-4.92-1.12Zm52-7.34a17,17,0,0,1-8.39,3.52,14.1,14.1,0,0,1-11.4-3c-3.19-2.71-5.07-6.46-5.79-11.48-.75-5.25.2-9.65,2.82-13.44a15.58,15.58,0,0,1,11.1-6.71,17.44,17.44,0,0,1,7.51.51l.48,3.34a14.77,14.77,0,0,0-8.07-1,11.93,11.93,0,0,0-8.71,5.52q-3,4.63-2,11.26c.61,4.3,2.17,7.49,4.7,9.8a10.52,10.52,0,0,0,9.14,2.59,14.52,14.52,0,0,0,8.22-3.86l.43,3Zm15.77-31a5.79,5.79,0,0,0-3.61-.58q-3.95.57-5.89,4.87c-1.41,2.88-1.7,6.82-1,11.72L525.5,187l-2.87.41-4.69-32.71,2.86-.41,1.05,7.28.12,0a11.65,11.65,0,0,1,2.74-6.36,8.24,8.24,0,0,1,5.32-2.84,9.27,9.27,0,0,1,3.31.14Zm3.39-12.06a2.38,2.38,0,0,1-1.78-.48,2.46,2.46,0,0,1-1-1.68,2,2,0,0,1,.48-1.78,2.27,2.27,0,0,1,1.58-.84,3.3,3.3,0,0,1,1.88.34,2.22,2.22,0,0,1,1,1.57,2.48,2.48,0,0,1-.46,1.9A2.66,2.66,0,0,1,537.17,143.57Zm4.46,41.28-4.69-32.72,3-.43,4.7,32.72Zm12.42-7.76-.12,0,3,20.9-3,.42-6.86-47.75,3-.43,1,6.8h.12a13.15,13.15,0,0,1,11.09-9.27,12.15,12.15,0,0,1,10.41,2.89c2.8,2.52,4.44,6.31,5.14,11.2.79,5.49.11,10.1-2.15,13.84a13,13,0,0,1-9.91,6.54A11.91,11.91,0,0,1,554.05,177.09Zm-1.87-12.16.6,4.18a12.7,12.7,0,0,0,4.32,8,10.26,10.26,0,0,0,8.63,2.42,9.61,9.61,0,0,0,7.5-5.46c1.62-3.16,2.15-7.14,1.48-11.79-.58-4.06-2-7.27-4.27-9.38a9.49,9.49,0,0,0-8.16-2.49c-3.82.55-6.61,2.29-8.28,5.09a14,14,0,0,0-1.82,9.4Zm46.34,11.26a10.47,10.47,0,0,1-4.15,1.7c-4.89.7-7.69-1.82-8.53-7.68l-3.16-22-5.85.84-.39-2.75,5.85-.84L581.07,137c.46-.19.91-.49,1.37-.68s.9-.5,1.36-.68l1.37,9.55,8.6-1.24.39,2.75L585.57,148l3.1,21.61c.32,2.27.92,3.89,1.78,4.75a4.28,4.28,0,0,0,3.8,1,7.81,7.81,0,0,0,3.77-1.76l.38,2.63.12,0Z" transform="translate(-0.6 0.2)"/><path id="path-1" class="cls-2" d="M300.29,188.8c-2.57,2.14-7.94,2.93-7.94,2.93l-39.9,5.61,2.05-9.83,29.35-4c3.33-.46,4.13-1.94,1.78-3.28s-6.94-2.07-10.28-1.6l-19.54,2.62,2.13-10.2,1.12-.14a64.17,64.17,0,0,1,13.22,0,55,55,0,0,1,23,7.71C302.74,182.73,302.86,186.65,300.29,188.8Zm-37.12-25.2,5.23-25.15c.62-2.95.64-5.78-2-7.13-2-1.12-3.71.57-4.32,3.52l-13.12,63-15.85-8.92,15.63-75.08a208.93,208.93,0,0,1,22.06,11.28c13.35,7.94,16.95,15.1,14.07,28.94C282.09,167.53,272.69,170.91,263.17,163.6Zm-59.82,12.18c-7.74-4-8.1-9.14-3.78-11.14,4-1.84,10.3-2.55,10.3-2.55L236,158.5,234,168.37,215.14,171c-3.33.46-4.13,1.94-1.79,3.28s7,2.07,10.28,1.6l9-1.3-1.84,8.83-1.73-.07a56.17,56.17,0,0,1-25.75-7.56Zm89.29,22.67a4.07,4.07,0,1,1-4.23,6.21,4,4,0,0,1-.57-3A4.06,4.06,0,0,1,292.64,198.45Zm-4.14,3.3a3.4,3.4,0,0,0,2.62,4,3.36,3.36,0,0,0,4-2.62,3.38,3.38,0,0,0-6.61-1.37Zm5-1.21a1.14,1.14,0,0,1,.43,1.23,1.18,1.18,0,0,1-.32.63,1.38,1.38,0,0,1-.4.26.93.93,0,0,1,.22.27,1,1,0,0,1,0,.62l-.09.57a1.21,1.21,0,0,0,0,.35.27.27,0,0,0,.08.22l.06,0,0,.06,0,.1,0,.1-.09,0-.71-.15h-.05l0-.06a.5.5,0,0,1,0-.18,2.14,2.14,0,0,1,0-.35l.11-.72a.5.5,0,0,0-.15-.52,1.31,1.31,0,0,0-.46-.17l-1.21-.25-.36,1.72,0,.09-.1,0-.57-.12-.1,0,0-.09.89-4.23,0-.1.09,0,2,.41a2,2,0,0,1,.81.32Zm-2.5,1.34,1.23.26a1,1,0,0,0,.61,0c.15-.06.24-.22.29-.46a.53.53,0,0,0-.16-.59,1,1,0,0,0-.4-.17l-1.31-.27-.26,1.25Z" transform="translate(-0.6 0.2)"/><path class="cls-2" d="M148.71,276.34l-5.65.88q-2.52-14.25-5.83-26.62h0l-4.41,28.22-4.29.67L115.74,254h0q.94,12.24,3,27.07l-5.15.8q-2.31-18.06-2.76-34.11l7-1.09,12,23.51h.05l4.33-26.06,6.69-1q5.09,18.09,7.86,33.32m20.6-28.7q-.52,19.25-4.86,28.61-3.37,7.22-8.62,8a9.42,9.42,0,0,1-3.58-.3l-.47-3a15.67,15.67,0,0,0,2.38-.21,5.74,5.74,0,0,0,3.73-2,4.94,4.94,0,0,0,1.22-4,24.54,24.54,0,0,0-2.29-5.53L147.63,251l5.54-.87,6.69,13.7c1.51,3.11,2.28,5.32,2.32,6.65a94.9,94.9,0,0,0,1.78-22l5.35-.83Z" transform="translate(-0.6 0.2)"/><path class="cls-2" d="M248.32,260.81l-16,2.5L227,229.58l5.39-.84L237,258.32l10.64-1.66Zm-20.1,4-6.68-2.1a11.53,11.53,0,0,0,1.32-1.74q3.22-5.26,1.8-14.36-2.61-16.72-15.74-14.69-6.45,1-9.38,5.82-3.22,5.26-1.82,14.3t5.53,12.49q3.78,3.25,10.23,2.25a15.82,15.82,0,0,0,4.32-1.28l8.81,3.44ZM207,260.34q-2.57-3-3.7-10.26-2-12.74,5.75-14a6.56,6.56,0,0,1,6.42,2.12q2.56,3,3.69,10.17,2,12.84-5.74,14.05a6.57,6.57,0,0,1-6.42-2.13m-10.5-1a9.06,9.06,0,0,1-2.05,7.53,12.57,12.57,0,0,1-8,4.07,17.12,17.12,0,0,1-10.09-1.66l1-3.12a16.56,16.56,0,0,0,7.55.87,7.76,7.76,0,0,0,4.57-2.09,4.63,4.63,0,0,0,1.25-4c-.31-2-2-3.5-4.76-4.53-2.57-.93-7.72-2.91-7.72-2.91-2.85-1.47-4.45-3.27-5-6.57a8.45,8.45,0,0,1,1.84-7.07,10.93,10.93,0,0,1,7-3.68A15.56,15.56,0,0,1,191,237.3l-.85,3.1a16.76,16.76,0,0,0-6.71-.39,5.83,5.83,0,0,0-3.79,1.87,4.24,4.24,0,0,0-1,3.44c.31,2,2,3.5,4.87,4.55,2.6.93,7.87,2.94,7.87,2.94,2.92,1.45,4.54,3.23,5.06,6.51" transform="translate(-0.6 0.2)"/><path class="cls-2" d="M196.66,210.41a22.51,22.51,0,0,0-8.58,4.11c-.61.5-1.71.84-1.53,1.75.49.26.72.84,1.21,1.26a11.13,11.13,0,0,0,3.29,2.06c1.2.44,2.41.87,3.63,1.2,2.15.55,4.4.56,6.5,1.12,1.22.32,2.5.84,3.74,1.21.62.22,1.13.72,1.86.74l-.05-.14c-.45-.31-.74-.88-1.2-1.25l-1.81-.9a22.91,22.91,0,0,0-6.28-3.17c-1.8-.55-5.48-.93-6.62-2.44l-.12-.07a18.73,18.73,0,0,0,3-1.75c1.44-.91,2.91-1.26,4.4-2.19.68-.41,1.35-.88,2-1.34l-.13-.42c-1.1-.57-2-1.49-3.17-2a63.78,63.78,0,0,0-9.43-3.3c-1.73-.48-3.76-.5-5.54-.81-.64-.1-1.61,0-2.08-.31a20.16,20.16,0,0,1-3-3c-2.13-2.13-4.32-4.54-6.32-6.87a53.05,53.05,0,0,0-4-4.54c-7.24-6.37-13.92-9.51-23.35-11.69a23.22,23.22,0,0,0-6.52,0l-3.53.91a18.46,18.46,0,0,1-2.64-1c-3.16-.83-11.1-2.31-11.54,3.06-.31,3.41,3.72,5.4,5.26,6.59a22.33,22.33,0,0,1,3.45,2.74c.57.68.93,1.49,1.51,2.22a59.46,59.46,0,0,0,4.36,5.45A23.1,23.1,0,0,0,136,200c.53.39,1.25.42,1.65,1.21-.36,1.12,0,2.53,0,3.8,0,5.76,2.66,12,6.22,15.14,1.11.92,3.67,2.92,5.72,1.2,1.82-1.48.53-4,.41-6.48,0-.6-.24-.94-.08-1.39l0,.09c1,1.09,2.09,2.13,3.1,3.25a27.71,27.71,0,0,0,8,4.31c1.37.49,2.7,1.64,4.25,1.72l0-.14-.1,0a5.43,5.43,0,0,0-1.35-.59,24,24,0,0,1-3.28-2,62.54,62.54,0,0,1-7.82-6.81c-1.2-1.2-2.33-2.57-3.38-3.82-.46-.46-.72-1.3-1.27-1.43a18,18,0,0,0-1.24,3.84c-.25,2.27.43,4.75.9,7.4l-.16.15c-1.59.09-2.58-1.27-3.54-2.39a21,21,0,0,1-4.3-12.23c0-1.08.46-4.57-.39-5.32-.56-.8-1.64-1-2.37-1.55a19.94,19.94,0,0,1-2.59-2.44c-1.93-2.24-3.39-4.94-5.39-7.15a25.78,25.78,0,0,0-3.44-2.85,23.47,23.47,0,0,1-3.68-2.81c-.39-.43-1-1.17-.78-1.84a.77.77,0,0,1,.46-.8c.44-.7,2.36-.59,3-.5a24.45,24.45,0,0,1,5.31.88,8.49,8.49,0,0,0,2.67.89l1-.3c1.58-.14,3.17-.9,4.7-.92a31.32,31.32,0,0,1,7.66,1.1,43.18,43.18,0,0,1,19.41,11.31c.89.89,1.43,1.79,2.28,2.74,1.69,2,3.62,3.91,5.28,5.83a32,32,0,0,0,5.24,5.17c1,.75,3.94.39,5.35.51a32.19,32.19,0,0,1,3.59.29c1.88.48,3.8,1.1,5.62,1.7.91.32,3.59.76,4,1.64M136.82,185a7.29,7.29,0,0,0-1.82.83l0,.09.09,0a14.57,14.57,0,0,0,2.08,1.44c.6.62,1.16,1.26,1.75,1.88l.06-.12a2.74,2.74,0,0,0,.26-2.62c-.39-.24-.53-.54-.87-.79s-1.09-.43-1.58-.68" transform="translate(-0.6 0.2)"/><g id="Layer_2" data-name="Layer 2"><path class="cls-2" d="M70.07,410.53q4.55,0,6,1.71t.68,5.75c-.56,2.82-1.64,4.83-3.21,6s-4,1.79-7.18,1.77l-4.84,0,3.06-15.27ZM50.5,441.17l8,.05,1.94-9.7,6.82,0a24.43,24.43,0,0,0,7.43-.9A14.08,14.08,0,0,0,80,427.51,15.72,15.72,0,0,0,85,418.6q1.3-6.5-1.84-10.13t-10-3.69l-15.3-.09Z" transform="translate(-0.6 0.2)"/><path class="cls-2" d="M91,395.18l7.9.05-2,9.7,7,0c4.43,0,7.47.82,9.14,2.37s2.16,4.06,1.47,7.52l-3.41,17-8-.05,3.24-16.14c.37-1.83.25-3.09-.37-3.76s-1.93-1-4-1l-6.31,0-4.2,20.9-7.89,0Z" transform="translate(-0.6 0.2)"/><path class="cls-2" d="M132.18,410.91q4.53,0,6,1.71t.69,5.75q-.85,4.25-3.22,6t-7.18,1.77l-4.84,0,3.07-15.27ZM112.6,441.55l8,.05,2-9.7,6.81.05a24.67,24.67,0,0,0,7.43-.91,14,14,0,0,0,5.32-3.14,16.36,16.36,0,0,0,3.26-4,16.53,16.53,0,0,0,1.79-4.88q1.31-6.48-1.84-10.13t-10.05-3.68l-15.3-.1Z" transform="translate(-0.6 0.2)"/></g><polygon class="cls-2" points="670.22 391.96 678.62 391.15 678.62 391.15 678.62 391.15 687.02 390.33 676.51 369.43 670.22 391.96"/><path class="cls-2" d="M673.79,335h0L629.5,357.08l13.35,64.67,41.24,19.41h0l36.73-27,.68-66Zm36.56,78.23-10.72,1h0l-7.28-14.94-12.21,1.18h0l-12.2,1.18-4.28,16.07h0l-10.72,1h0l22-72.07h0l35.42,66.5Z" transform="translate(-0.6 0.2)"/><path id="path4" class="cls-2" d="M363,287.15a53.35,53.35,0,0,1-2,10.75,49.31,49.31,0,0,1-3.82,10,13.26,13.26,0,0,1-7.09,6.49,22,22,0,0,1-8.31.77,23.51,23.51,0,0,0-8.9,1,24.19,24.19,0,0,0-7.9,4.72,24.22,24.22,0,0,1-6.7,4.43q-4.21,1.64-9.79-.88a50.62,50.62,0,0,1-9.53-5.81,59.34,59.34,0,0,1-12-11.8,55.26,55.26,0,0,1-8.76-15.94,32.66,32.66,0,0,1-1.43-17.59,25.14,25.14,0,0,1,5.6-11.51,24.11,24.11,0,0,1,10.42-7.16,28.65,28.65,0,0,1,9.61-.95c4.14.13,6.74,0,7.77-.32.77-.26,3.12-2,7-5.1q5.53-4.41,10-5.51,12.12-3,20.88,3.32-8.39,10-4.38,21.45a20.86,20.86,0,0,0,11.53,12.68,22.42,22.42,0,0,0,7.92,2.05c0,1.69-.06,3.32-.18,4.9Zm-42.14-64.91a21.13,21.13,0,0,1-.68,14.82c-2.48,6.2-6.51,10.67-12.06,12.06-.25-.54-.49-1.12-.71-1.74a21.67,21.67,0,0,1,.95-15.07,22,22,0,0,1,4.92-7.2,20.83,20.83,0,0,1,6.84-4.71c.28.6.52,1.22.74,1.84Z" transform="translate(-0.6 0.2)"/><path class="cls-2" d="M293.38,359.71c3.92,1.73,6.31,3.88,6.48,4.46-.21-1-.82-5.7-1.42-8.61,2.17,1.56,7.28,5,9.24,6.23.78-2.17,3.07-9.23,3.07-9.23s4.55,7.05,5.14,8c.78-.8,6-6.5,7.2-8.09.22,3.33.63,8,.84,8.83a16.7,16.7,0,0,1,5.47-5.53,24,24,0,0,0-2.31,10,42.61,42.61,0,0,0-10.42-1.52,36.25,36.25,0,0,0-18.8,5.2A28.62,28.62,0,0,0,293.38,359.71Zm52.77,59.91L343,416.1c-.74,9.21-5,16.69-13.4,22.24l-1.41-5.08c-6.84,5.13-18.78,8.16-28.81,2.55,1.33-6.46,2.29-13.14-.13-21-5.44,8.87-10.71,12.44-10.71,12.44-3.75-6.44-3.66-19.19-2.31-22.94l-6.07,2.41c0-4.5,3-13.56,7.55-18.67l-3.92-.77a35.87,35.87,0,0,1,11.7-14c-1.57,2.38-1.53,8.05,3,10.19-1.78-3.32-2.21-7.06-.27-9.41,2.15-2.18,5.08-1.41,7.08.16-.8-1.75-2.4-4.11-5.11-4.09a37.42,37.42,0,0,1,16.64-4.23,23.29,23.29,0,0,1,3.54.19,16.83,16.83,0,0,1,5.53,4.87,14.25,14.25,0,0,0-.82-4.11,26.63,26.63,0,0,1,11,5.43,18.33,18.33,0,0,0,2.21,7.23c-2.18-2.36-7.7-6.24-10.25-7a10.88,10.88,0,0,1-1,3.71,40.07,40.07,0,0,0-7.69-4.66c-5.5.83-9.4,3.19-11.14,5l1.76,1.57a10.74,10.74,0,0,0-5.47,3.95l3.13.56s-.19,3.54,4.16,5.47c3.72,2.15,9.41-.64,14.33,1.5a55.63,55.63,0,0,0-5.53-5.47,21.27,21.27,0,0,0-2.37-.19,11.89,11.89,0,0,1-4.92-.55c-.79-.58-2.17-1-3-1.56a13.06,13.06,0,0,1,5.68-3.17,18.11,18.11,0,0,1,5.52,2.51,5.47,5.47,0,0,1,3.32-1.6,3.47,3.47,0,0,0-1,3.55c2.39,2.15,5.12,5.26,5.12,5.26,2.95-1.6,8.62-1.05,9.62.14a31.31,31.31,0,0,0-5.32-5,29,29,0,0,0-2.39-3.7,20.09,20.09,0,0,1,3.55,2.15,3.91,3.91,0,0,1,2.36-1.6,3,3,0,0,1,1.39,2.95c-.78.79-1,.79-1,.79l3,3.11.19-2.16C347,394.7,350.77,405.64,346.15,419.62Zm-12.71-20.54,0-5.09a23,23,0,0,1-4.72-2.51c-4.91.82-10.38,5.36-10.38,5.36s2.19,3.69,4.17,7.63C326.44,405,331.7,400.67,333.44,399.08Zm4.76,8.8A10.65,10.65,0,0,0,336,404l-3.71,0s-5.06,4.53-8,4.55c0,0,1.77,3.12,2.58,4.9,1.74-.6,4.69-1.78,5.68-3.16a19.83,19.83,0,0,1,.82,5.28C335.33,414.56,337.44,412.21,338.2,407.88Zm1.49-16.09c-2.16,1.59-3.53,2.39-3.53,2.39l0,5.09a17.94,17.94,0,0,1,3.75,5.06C341.91,400.81,341.46,396.11,339.69,391.79ZM359.54,396l-.18-29,9.41,0c6.08,0,10.43,3.47,10.47,9.55s-4.44,9.65-10.35,9.69l-3.54,0,.06,9.41C365.62,396,359.54,396,359.54,396Zm5.78-14.95,3.33,0c3,0,5.08-1.61,5.06-4.53S371.52,372,368.6,372l-3.34,0S365.32,381.05,365.32,381.05Zm89.93,46.1c-4.12,0-9.43-2.31-9.47-9.35l-.07-10.21,5.09,0,.06,9.62c0,3.33,1.61,4.9,4.15,4.89,2.37,0,4.11-1.78,4.09-4.94l-.06-9.62,5.09,0,.06,10.2c.25,6.87-4.82,9.45-8.94,9.47m-45.7.29c-5.08,0-9.44-4.65-9.47-9.94a9.71,9.71,0,0,1,9.35-9.68c3,0,4.92,1,5.72,2.92l.78-2.55,4.71,0,.11,19-4.7,0-.61-2.74a7.1,7.1,0,0,1-5.89,3m1.08-15.1a5.09,5.09,0,1,0,5.11,5.06,4.94,4.94,0,0,0-5.11-5.06M445.11,376l5.08,0,.12,19-5.09,0Zm2.94-2.56a3.34,3.34,0,1,1,3.31-3.35,3.45,3.45,0,0,1-3.31,3.35m-10.93,10.65c0-2.17-1-3.33-3.15-3.31s-3.12,1.39-3.11,3.55l.07,11.17-5.08,0L425.78,384c0-2.16-1-3.32-3.15-3.31s-3.12,1.39-3.11,3.56l.07,11.16-5.08,0-.12-19,4.71,0,.8,2.54a5,5,0,0,1,4.9-3.16,5.61,5.61,0,0,1,5.31,2.93l.2.2.21-.21c2.15-2.55,4.1-3,5.48-3,4.12,0,6.89,3.09,6.92,7.21l.07,12.37-5.08,0-.07-11.58C437.91,384.1,437.12,384.11,437.12,384.11Zm37.14,11.18-.12-19,4.71,0,.81,2.95a5.28,5.28,0,0,1,4.89-3.15,4.06,4.06,0,0,1,1.58.19l0,5.09a7.91,7.91,0,0,0-2.16-.2c-2.54,0-4.49,1.61-4.47,4.74l.05,9.41Zm-93.15.57-.11-19,4.7,0,.81,2.95a5.3,5.3,0,0,1,4.9-3.16,4.32,4.32,0,0,1,1.58.2l0,5.08a5.76,5.76,0,0,0-2.37-.36c-2.55,0-4.5,1.61-4.48,4.74l.06,9.41S381.11,395.86,381.11,395.86Zm-21.38,31.51-.17-28.45,5.49,0,.14,22.95,12.37-.07,0,5.29Zm29.21.19a9.84,9.84,0,0,1-10.27-9.93,10,10,0,0,1,10.14-10.27c4.71,0,9.44,3.48,9.48,9.94a10.27,10.27,0,0,1-.19,2.17l-13.92.08a4.75,4.75,0,0,0,4.94,3.51,6.74,6.74,0,0,0,5.07-2.2l3.35,3.32a13,13,0,0,1-8.6,3.38m-.3-15.66a4.88,4.88,0,0,0-4.69,3.36l8.83-.06a4,4,0,0,0-4.14-3.3m88,15.12a9.85,9.85,0,0,1-10.27-9.93,10,10,0,0,1,10.15-10.27c4.7,0,9.43,3.48,9.47,9.94a10.19,10.19,0,0,1-.19,2.16l-14.12.09a4.74,4.74,0,0,0,4.93,3.51,6.7,6.7,0,0,0,5.07-2.2l3.36,3.32a12.5,12.5,0,0,1-8.4,3.38m-.3-15.67a4.89,4.89,0,0,0-4.69,3.37l8.83-.06a3.89,3.89,0,0,0-4.14-3.31m-13.43-15.82a9.85,9.85,0,0,1-10.27-9.94,10,10,0,0,1,10.14-10.26c4.71,0,9.44,3.48,9.48,9.94a10.92,10.92,0,0,1-.19,2.16l-14.13.09a4.77,4.77,0,0,0,4.94,3.51,6.79,6.79,0,0,0,5.07-2.2l3.35,3.31a12.84,12.84,0,0,1-8.39,3.39M462.41,380a4.88,4.88,0,0,0-4.68,3.36l8.83-.06a4.08,4.08,0,0,0-4.15-3.3M403.28,395.9A9.85,9.85,0,0,1,393,386a10,10,0,0,1,10.14-10.26c4.71,0,9.44,3.48,9.48,9.94a10.39,10.39,0,0,1-.2,2.16l-14.12.09a4.77,4.77,0,0,0,4.94,3.51,6.81,6.81,0,0,0,5.07-2.2l3.35,3.31a12.84,12.84,0,0,1-8.39,3.39M403,380.4a4.88,4.88,0,0,0-4.68,3.37l8.83-.06A4.27,4.27,0,0,0,403,380.4m30.2,31.81a5.09,5.09,0,1,0,5.11,5.05,4.93,4.93,0,0,0-5.11-5.05m4.9-2.2.77-2.38,4.71,0,.11,18c0,3.54-1,6.09-3.28,8.06a11.29,11.29,0,0,1-7.07,2.42,13,13,0,0,1-9.22-3.48l3.1-4.15a8.47,8.47,0,0,0,5.72,2.51c3.91,0,5.48-2.2,5.46-4.95v-1.37a7,7,0,0,1-5.27,2.4,9.84,9.84,0,0,1-9.68-9.94,9.62,9.62,0,0,1,9.56-9.67,6,6,0,0,1,5.1,2.54" transform="translate(-0.6 0.2)"/><path class="cls-3" d="M408,296.33a41.44,41.44,0,1,0-1.65-14.67C409,286.16,410,289,408,296.33Z" transform="translate(-0.6 0.2)"/><path class="cls-4" d="M445.51,274v.21L435.38,289a11.31,11.31,0,0,0-4.85.85,11.56,11.56,0,0,0-1.94,1l-22.25-9.16s-.52,8.47,1.63,14.78L423.7,303a11.47,11.47,0,0,0,21.8,1.93,11.62,11.62,0,0,0,.88-4.73l14.5-10.36h.36A15.76,15.76,0,1,0,445.51,274Zm-2.43,29.83a8.87,8.87,0,0,1-11.59,4.78,8.78,8.78,0,0,1-4.56-4.35l5.12,2.12a6.53,6.53,0,0,0,5-12.06l-5.3-2.19a8.86,8.86,0,0,1,11.31,11.7m18.16-19.33A10.5,10.5,0,1,1,471.72,274a10.5,10.5,0,0,1-10.48,10.5M453.38,274a7.88,7.88,0,1,1,7.87,7.88A7.88,7.88,0,0,1,453.38,274Z" transform="translate(-0.6 0.2)"/><rect class="cls-3" x="539.13" y="410.67" width="1.17" height="1.17" transform="translate(-117.71 241.17) rotate(-22.77)"/><path class="cls-2" d="M404,295.88a46.56,46.56,0,1,0-1.85-16.47c3,5.06,4.18,8.18,1.85,16.47Z" transform="translate(-0.6 0.2)"/><path class="cls-5" d="M446.15,270.85v.23l-11.38,16.54a12.68,12.68,0,0,0-5.45,1,11.91,11.91,0,0,0-2.18,1.15l-25-10.29s-.58,9.51,1.83,16.61l17.67,7.29a12.9,12.9,0,0,0,25.49-3.15l16.29-11.64h.4a17.71,17.71,0,1,0-17.67-17.7Zm-2.73,33.51a9.94,9.94,0,0,1-18.15.49l5.76,2.38a7.34,7.34,0,0,0,5.63-13.55l-5.94-2.47a10,10,0,0,1,12.7,13.15m20.4-21.72a11.8,11.8,0,1,1,11.78-11.79,11.79,11.79,0,0,1-11.78,11.79M455,270.83a8.85,8.85,0,1,1,8.84,8.86A8.85,8.85,0,0,1,455,270.83Z" transform="translate(-0.6 0.2)"/><path class="cls-2" d="M75.74,260.46,36.87,264,1.49,247.56l7.56-94.3,91.39,15.88Z" transform="translate(-0.6 0.2)"/><path class="cls-2" d="M53.44,168.71,38.26,256l.08,0,31.45-2.87,20.71-78-37.06-6.45Z" transform="translate(-0.6 0.2)"/><path class="cls-2" d="M36,143.9l1-5.53,8.06,1.4,1-6L32,131.28l-3,17.08,14.1,2.46,1-5.52Zm23.52-1.61,5.64,1,1-6-14.11-2.45-1,6c1.56,2.22,2.39,3.29,4.64,6.5l-5.6-1-1,5.51,14.11,2.45,1-5.51-4.68-6.51Zm20,3.48,5.63,1,1-6.05-14.11-2.45-1,6.05c1.56,2.21,2.39,3.29,4.65,6.49l-5.61-1-1,5.52,14.11,2.45,1-5.52-4.67-6.5Z" transform="translate(-0.6 0.2)"/><path class="cls-5" d="M49.37,191.92l-28.5,6.44-1,11.11L47.45,203,76.81,196l3.08-11-30.52,6.91Z" transform="translate(-0.6 0.2)"/><path class="cls-5" d="M79.89,185l-30.52,6.91-1.92,11L76.81,196Z" transform="translate(-0.6 0.2)"/><path class="cls-5" d="M20.91,198.37l-1,11.11,39.4,7-3.42,14.45-13.61,1.4L30.34,227l.82-9.2-11.58-2L18,233.55l22.23,11,24.48-2.75,9.06-34.23Z" transform="translate(-0.6 0.2)"/><path class="cls-6" d="M47.45,203l-26.58-4.62-1,11.11L45.53,214l1.92-11Zm-5.1,29.31h-.13L30.3,227l.82-9.2-11.59-2L18,233.55l22.22,11Z" transform="translate(-0.6 0.2)"/><path class="cls-5" d="M22.46,175l57.43,10-3.08,11L21.9,186.48,22.46,175Z" transform="translate(-0.6 0.2)"/><path class="cls-6" d="M51.43,180.06l-29-5-.56,11.45,27.58,4.79,2-11.21Z" transform="translate(-0.6 0.2)"/><polygon class="cls-2" points="319.22 116.16 336.42 23.48 425 48.23 391.67 136.39 352.59 136.31 319.22 116.16"/><polygon class="cls-2" points="354.79 128.64 386.37 128.7 414.85 53.37 378.64 43.25 354.79 128.64"/><polygon class="cls-5" points="369.27 76.79 354.6 72.69 356.76 61.05 372.45 65.43 375.55 54.34 375.51 54.33 347.74 46.57 347.17 49.62 341.36 80.94 366.18 87.88 369.27 76.79"/><polygon class="cls-5" points="361.23 105.59 361.18 105.59 349.76 98.8 351.44 89.74 345.44 88.06 340.31 86.63 336.99 104.47 357.95 117.13 358 117.13 361.23 105.59"/><path class="cls-2" d="M352.13,1l5.63,1.58-1.55,5.56,5.15,1.44L362.92,4l5.63,1.57-4.71,16.86-5.63-1.57,1.57-5.65-5.15-1.44-1.58,5.65-5.63-1.58L352.13,1Z" transform="translate(-0.6 0.2)"/><path class="cls-2" d="M374.4,13.26l-5-1.38L371,6.29l15.56,4.34L385,16.23l-5-1.39-3.15,11.27-5.64-1.58,3.15-11.27Z" transform="translate(-0.6 0.2)"/><path class="cls-2" d="M389,11.32,394.91,13l2,6.93L402.14,15,408,16.63,403.3,33.49l-5.61-1.57L400,23.56l-5.56,4.92-.09,0-2.21-7.08-2.33,8.36-5.52-1.54Z" transform="translate(-0.6 0.2)"/><path class="cls-2" d="M410.82,17.41,416.46,19,413.3,30.27l7.93,2.22-1.56,5.57-13.56-3.79Z" transform="translate(-0.6 0.2)"/><polygon class="cls-5" points="369.24 76.78 366.14 87.87 379.79 91.68 374.49 105.71 361.19 105.59 357.96 117.13 382.46 117.18 383.15 115.35 393.91 86.88 395.01 83.98 392.03 83.15 369.24 76.78"/><polygon class="cls-5" points="375.51 54.33 373.58 61.22 372.42 65.39 372.41 65.42 399.16 72.9 399.16 72.9 399.2 72.91 400.12 70.48 402.19 65 403.29 62.09 375.51 54.33"/><rect class="cls-7" x="353.83" y="452.88" width="0.86" height="0.86"/><rect class="cls-7" x="739.83" y="208.88" width="0.86" height="0.86"/><g id="g10"><g id="g718"><g class="cls-8"><g id="g720"><g id="g738"><path id="path740" class="cls-2" d="M.8,36.84s5.67.72,6.57-4.59c1.18-6.89-7.38-8.69-5.78-18,1.19-7,9.09-7.51,9.09-7.51a.17.17,0,0,1,.18.14.16.16,0,0,1-.15.17,8.14,8.14,0,0,0-6.53,7C3,21,10.81,24,9.8,30.93s-6.28,6.93-7.44,6.73a5.15,5.15,0,0,1-1.68-.52.17.17,0,0,1-.07-.21.17.17,0,0,1,.19-.09" transform="translate(-0.6 0.2)"/></g><g id="g742"><path id="path744" class="cls-2" d="M112.5,104a24.3,24.3,0,0,0,3.21-2.74.35.35,0,0,0,.07-.15V101A56,56,0,0,0,114,94.26,55.16,55.16,0,0,0,108.1,89a.2.2,0,0,0-.08,0,.16.16,0,0,0-.18.13.11.11,0,0,0,0,.1h0l.35.72c.4.86,1,2.09,1.53,3.62a51.74,51.74,0,0,1,2.47,10.28.18.18,0,0,0,.3.12" transform="translate(-0.6 0.2)"/></g><g id="g746"><path id="path748" class="cls-2" d="M39.23,30l0-.07a6.39,6.39,0,0,0,.56-.46,11.09,11.09,0,0,0,2.4-3.24,10.44,10.44,0,0,0,1-3h0a10.32,10.32,0,0,0-4.48-10.68,13.3,13.3,0,0,0-5.28-2.2h0a11.81,11.81,0,0,0-6.79.9,12.92,12.92,0,0,0-5.28,5.16,43.59,43.59,0,0,1-3.7,5.48A5.26,5.26,0,0,1,16,23.27a3.09,3.09,0,0,1-1.9.25h0a3.2,3.2,0,0,1-1.47-.68,4.58,4.58,0,0,1-1.46-2.51,10.53,10.53,0,0,1,0-4.29,21.66,21.66,0,0,1,1.09-3.93,13.6,13.6,0,0,1,8.11-7.92,22.66,22.66,0,0,1,11.83-1,22.54,22.54,0,0,1,6,1.86,23.66,23.66,0,0,1,9.57,8.39,16.82,16.82,0,0,1,2.75,12A15.47,15.47,0,0,1,49,29.7a15.44,15.44,0,0,1-4.69,5.67,16,16,0,0,1-8,2.93,19.13,19.13,0,0,1-4.39,0c3.8-1.67,6.72-4.71,7.32-8.28m-23.12,1.9c-.42,1.74-2.27,1.48-2.63,1.41.09-.26.16-.54.24-.84a1.24,1.24,0,0,0,1.47-.89c.24-1-.67-1.6-1.07-1.8q0-.48,0-.93c.36.15,2.42,1.13,2,3.05M135,76.3s-.06-.09-.16-.28-.27-.48-.46-.84c-.4-.72-.95-1.73-1.56-2.94a81.3,81.3,0,0,1-3.8-8.45c-1.64-4.47-3.24-10.22-3.9-12.71a27.1,27.1,0,0,0,4.45-3.84.32.32,0,0,0,.09-.17.3.3,0,0,0,0-.21l-.49-1a69.68,69.68,0,0,1-4.18-10l-.29-.9a.32.32,0,0,0-.25-.22l-.92-.16c-4.69-.83-17.71-3.31-33.4-7.75A240.41,240.41,0,0,1,56.25,14.46c-.22-.52-.45-1-.69-1.55A10.63,10.63,0,0,1,51.49,11c3.95,5.88,5.36,14,4,21.44a33.75,33.75,0,0,1-2.9,8.74,22.63,22.63,0,0,1-9,9.8,19.23,19.23,0,0,1-6.37,2.38c-1.52-5-3.1-9.2-4.24-12a22.67,22.67,0,0,0,3.62-.07,19.13,19.13,0,0,0,9.45-3.51,19.14,19.14,0,0,0,7.32-11.92,19.82,19.82,0,0,0-3.19-14.1A26.68,26.68,0,0,0,39.37,2.31,25.41,25.41,0,0,0,32.62.2,25.45,25.45,0,0,0,19.18,1.37a16.62,16.62,0,0,0-9.84,9.68A24,24,0,0,0,8.1,15.53a13.57,13.57,0,0,0,.06,5.52,7.55,7.55,0,0,0,2.48,4.13,6.21,6.21,0,0,0,2.49,1.24c0,.07,0,.16,0,.26,0,.29,0,.95.06,1.41a18.56,18.56,0,0,1-.17,3,18.25,18.25,0,0,1-.62,2.5c-.14.42-.26.76-.34,1a4.84,4.84,0,0,0-1.19-.19,20.24,20.24,0,0,0-2.62.23,58.23,58.23,0,0,1,7.25,8.22A26.52,26.52,0,0,1,20,51.15a.2.2,0,0,0,.17.15h0a20.05,20.05,0,0,1,3.59.68,18.52,18.52,0,0,1,3.37,1.31l0,0a.15.15,0,0,0,.15-.09,6.88,6.88,0,0,0,.15-3A3.89,3.89,0,0,0,25,47h0a.13.13,0,0,0-.15.09l-.43,1.54h0a.13.13,0,0,0,.11.16h0a3.09,3.09,0,0,1,1.45.65,1.89,1.89,0,0,1,.76,1.81A14.79,14.79,0,0,0,24,50.09a17.56,17.56,0,0,0-3.12-.72,49,49,0,0,0-2.87-7,58.38,58.38,0,0,0-4-6.9c.06-.15.24-.58.45-1.17l.09-.28a3,3,0,0,0,2.18-2.23A3,3,0,0,0,15.5,29c0-.32,0-.63,0-.92,0-.7,0-1.27,0-1.55A6.32,6.32,0,0,0,17.31,26,8.4,8.4,0,0,0,20,23.81a46.3,46.3,0,0,0,4-5.87,10,10,0,0,1,4-4,8.75,8.75,0,0,1,5-.64h0A10.26,10.26,0,0,1,37,15a7.49,7.49,0,0,1,3,3.77,7.73,7.73,0,0,1,.23,3.91v0h0a7.62,7.62,0,0,1-.68,2.1c-.15.29-.3.55-.45.79a8.45,8.45,0,0,0-6.91-6.4c-5.26-.9-9.72,2-10.71,7.76-.88,5.19,2.68,9.38,3.39,10.15a.26.26,0,0,0,.16.09h.1l.57-.08A14.26,14.26,0,0,0,28,36.53a.19.19,0,0,0,.1-.13.16.16,0,0,0,0-.12c-.69-.91-3.55-5-2.92-8.67.8-4.68,4.47-5.41,6.62-5.05a5.61,5.61,0,0,1,4.42,6.85C35.49,33.68,30.65,37.25,26,38a22.16,22.16,0,0,1-9.19-.75.16.16,0,0,0-.22.08.18.18,0,0,0,.06.23s3.48,2.63,10.23,2c.39,0,.77-.09,1.15-.15a26.4,26.4,0,0,0-.64,6,22.11,22.11,0,0,0,1,6.62.11.11,0,0,0,.09.08.15.15,0,0,0,.1,0l1.36-1.51a.28.28,0,0,0,.08-.15.37.37,0,0,0,0-.11,25.29,25.29,0,0,1,0-6.41l.65,1.68c.85,2.23,1.81,5,2.77,8-.44,0-.89-.05-1.33-.1.33,1.07.66,2.17,1,3.31.43,0,.87,0,1.3,0,.44,1.57.86,3.22,1.27,4.92A146.16,146.16,0,0,1,39,81.85a.81.81,0,0,1,0,.09l.13,1.72a.33.33,0,0,0,.26.28h.11l1.68-.29a11.8,11.8,0,0,1,4,0,12,12,0,0,1,4.9,2,9.82,9.82,0,0,1,3.75,5.2,15.69,15.69,0,0,1,.33,7.35v0h0a22.33,22.33,0,0,1-.53,2.3v0a.19.19,0,0,0,.15.22h.1a16.83,16.83,0,0,0,3.8-1.61.31.31,0,0,0,.16-.22v-.07a19.57,19.57,0,0,0-.45-9.14,13.58,13.58,0,0,0-5.17-7.13A15.85,15.85,0,0,0,45.8,80h0a15.56,15.56,0,0,0-3.28-.2,158.38,158.38,0,0,0-3.26-18.82c-.37-1.56-.75-3.06-1.15-4.51a22.53,22.53,0,0,0,7.08-2.84A26.8,26.8,0,0,0,55.33,42a37.11,37.11,0,0,0,3-9.58,34,34,0,0,0-.5-13.18A243.43,243.43,0,0,0,89.1,30.47c14.77,4.18,27.18,6.64,32.67,7.64a73.58,73.58,0,0,0,3.42,8.2c-.67.57-1.72,1.4-3.24,2.46l-.89.62a.31.31,0,0,0-.13.2.19.19,0,0,0,0,.13l.27,1.05s2.07,8.15,4.33,14.31A96.47,96.47,0,0,0,131,76.83a26.9,26.9,0,0,0-2.31,2.55,21.81,21.81,0,0,0-4.54,9.76,52.36,52.36,0,0,0-.71,9.58,47.93,47.93,0,0,0-5.27-6.85c-9.36-10.18-21.57-16.14-34.72-18.38h0A44.09,44.09,0,0,0,70.6,73a20.87,20.87,0,0,0-8.49,2.77,7.89,7.89,0,0,0-3,3.24,8.55,8.55,0,0,0-.65,2.13h0A15.75,15.75,0,0,0,58.8,87a60.26,60.26,0,0,1,1.11,6.14,91.58,91.58,0,0,1,.49,9.61.18.18,0,0,0,.16.19h0a.14.14,0,0,0,.11,0A19.63,19.63,0,0,0,64,101.3a.38.38,0,0,0,.13-.21v0c0-1.89-.14-4.9-.5-8.27a63,63,0,0,0-1.17-6.49,12.74,12.74,0,0,1-.36-4.44s0,0,0,0a5.11,5.11,0,0,1,.36-1.21A4.39,4.39,0,0,1,64.13,79,13.65,13.65,0,0,1,68.2,77.3a35.62,35.62,0,0,1,14.62-.13h0c12.47,2.14,23.87,7.72,32.62,17.23a42.48,42.48,0,0,1,9.24,15.7c.53,1.62.74,2.54.87,3a.19.19,0,0,0,.15.12.16.16,0,0,0,.15,0,16.5,16.5,0,0,0,2.86-2.49.39.39,0,0,0,.07-.16h0a.26.26,0,0,0,0-.15,9,9,0,0,1-.29-1.19c-.22-1-.51-2.22-.71-3.58a51.64,51.64,0,0,1,.08-15.86v0a17.94,17.94,0,0,1,3.64-7.86,20.19,20.19,0,0,1,3-3.18h0l1.29-1L135,76.3Z" transform="translate(-0.6 0.2)"/></g></g></g></g></g></svg>