
<?xml version="1.0" encoding="utf-8"?>
<!-- Generator: Adobe Illustrator 23.0.0, SVG Export Plug-In . SVG Version: 6.00 Build 0)  -->
<svg version="1.1" id="layouts" xmlns="http://www.w3.org/2000/svg" xmlns:xlink="http://www.w3.org/1999/xlink" x="0px" y="0px"
	 viewBox="0 0 70.5 28.2" style="enable-background:new 0 0 70.5 28.2;" xml:space="preserve">
<style type="text/css">
	.st0{fill:#767878;}
</style>
<path class="st0" d="M13.6,7.2c-0.2,0-0.6,0.5-1,0.8c-0.5-0.3-0.8-2.8-0.7-3.2c0.1-0.4,3.6-2.2,7.9-2.1c1,0,2.5,0.3,3,0.3
	c1,0,2.5-0.9,3.1-0.9c0.2,0.4-0.7,0.6-0.8,1.9c1.9,1.4,2.6,5.3,3.2,7.1c0.6,0.7,3,0.9,3.7,1.2c5.5,1.5,8.7,0.2,15.4-1.6
	c7.7-2,12.5,1,13.6-2.5c0.3-0.8,0.3-1.9-1-2.7c-2.2-1.3-5.8-1.2-11.8,0.9c-3.4,1.2-8.2,3.7-12.8,3.8c-2.6,0.1-4.8-2.1-4.7-4.2
	c0.2-2.7,4.6-4.8,5-4.3c0.3,0.3-3.3,3.1-1.6,5.5c1.3,1.9,4.5,1,5.9,0.7c5-1.4,15.2-7,20.4-4.2c4.5,2.4,4,6.7,0.3,8.2
	c1.7,1.9,2.7,5.8,2.9,8.4c0,0,1.5,0.7,4.6,1.2l-0.3,6.2h-7.7c0-2.4,3.6-2.2,4.1-2.9c-2.5-0.7-5.9-1.7-9.7-5.1c-2.6,2.6-4,7.6-4,7.6
	h-10c0-0.7,1.3-2.8,6-2.5c-0.1-2.3,0.3-5.9,0.4-7.1c-5.2-0.1-6.6,6.1-17.3,5.5c-0.1,0.4-0.7,1.2-0.7,1.2s-11.7,3.4-12,3.4H5.1
	c0-1.2-0.1-3.9,6.7-2.6c0,0,5-3.4,5.3-3.7l-9.9-5.9c-0.1-0.2-0.7-1.2-1.6-1.4c-0.8-0.2-2.8-0.1-2.8-0.1c-0.3-3.6,5.1-4.2,7.2-1.3
	c0.6,0.3,5.2,0.8,6.1,0.9c0.1-0.8,0.2-2,0.4-2.4c-0.3-0.1-2.6,1.4-2.8,0.8c-0.4-0.9-0.8-2.6-0.4-2.5c0.7,0.8,1.7,0.6,1.7-0.4
	c-5.2,0-6.6,0.7-6.5-4.5c0.1-0.4,0.4-0.5,0.5,0.1c0.7,2.8,1.2,4.2,5.9,3.4C14.6,7.9,14.6,7.5,13.6,7.2z M16.2,4c0,0.4,0,0.9,0.2,1
	c0.2,0.1,1.3-1.1,1.3-1.1C16.8,3.8,16.2,4,16.2,4z"/>
</svg>
