<svg id="Layer_1" data-name="Layer 1" xmlns="http://www.w3.org/2000/svg" viewBox="-24 0 195 138.6"><title>ram</title>
<path fill="#767878" d="M48.2,324.7l-.9.3s.2.1.7.4A15.38,15.38,0,0,1,34.2,335a11.94,11.94,0,0,1-4.3-.6l-.3-.5.4-.3s14.2-.6,14.2-14c0-17.3-21.7-18.2-21.7-41.6,0-17.5,19.1-22.1,19.1-22.1l.5.2-.3.5s-13,4.1-13,19.9c0,17.5,20.4,21.6,20.8,38.9A26.79,26.79,0,0,1,48.2,324.7Z" transform="translate(-22.5 -230.9)"/>
<path fill="#767878" class="cls-1" d="M48.2,324.7a4.88,4.88,0,0,1-.3.7,2.77,2.77,0,0,0-.7-.4S47.6,324.9,48.2,324.7Z" transform="translate(-22.5 -230.9)"/>
<path fill="#767878" d="M158.5,259.6h0a39.84,39.84,0,0,0-2.4-3.8c-.7-1.2-1.5-2.4-2.3-3.5a25.66,25.66,0,0,1-10.7-2.9c12.1,12.7,18.9,31.9,18.7,50.7a84.1,84.1,0,0,1-3.4,22.5,55.78,55.78,0,0,1-17.9,27.7,47.74,47.74,0,0,1-14.6,8.5,304.79,304.79,0,0,0-15.4-27.5,66.55,66.55,0,0,0,8.8-1.7,47.27,47.27,0,0,0,21.6-12.5,45.79,45.79,0,0,0,10.9-18.9,44.74,44.74,0,0,0,2-13.3c0-12.8-5.6-24.3-13.7-33.1a65,65,0,0,0-30.4-18.6,62.47,62.47,0,0,0-17.4-2.3c-11.1,0-22.6,2.6-32.3,8.5s-17.6,15.2-20,27.8a61.61,61.61,0,0,0-1.2,11.5,33.52,33.52,0,0,0,2.5,13.5,18.64,18.64,0,0,0,7.8,9,15.38,15.38,0,0,0,6.6,2l.2.6c.1.7.5,2.3.7,3.4a44.08,44.08,0,0,1,.8,7.3,40.58,40.58,0,0,1-.5,6.4c-.2,1.1-.3,2-.4,2.5h-3a46.53,46.53,0,0,0-5.4,1.4,4.88,4.88,0,0,1-.3.7,154.26,154.26,0,0,1,20.5,16.6c9.9,9.5,13.6,16.8,14.4,18.6l.5.3h0a55.22,55.22,0,0,1,9.1.1,48.16,48.16,0,0,1,8.8,1.8h.1l.3-.3a16.82,16.82,0,0,0-.9-7.4c-2.3-5.7-6.2-6.6-7.4-6.8h0l-.3.3-.4,3.9h0l.3.3h0a8,8,0,0,1,3.8,1,4.77,4.77,0,0,1,2.6,4.1,36.66,36.66,0,0,0-7.1-1.7,45.54,45.54,0,0,0-7.9-.4,117.53,117.53,0,0,0-10-16,136.41,136.41,0,0,0-12.7-15.2c.1-.4.3-1.5.6-3l.1-.7c2.7-1.4,4.4-3.7,4.4-6.3s-1.6-4.8-4.2-6.2l-.3-2.2c-.3-1.7-.6-3.1-.7-3.8a16.52,16.52,0,0,0,4.2-2.1,21,21,0,0,0,5.6-6.4,123.6,123.6,0,0,0,7.3-16c2.1-5.3,4.9-9.3,8-11.4a21.47,21.47,0,0,1,11.9-3.7,25.6,25.6,0,0,1,10.7,2.5,18.35,18.35,0,0,1,8.8,8,19.27,19.27,0,0,1,2.2,9.5v.1a17.08,17.08,0,0,1-.8,5.4l-.8,2.1a21.09,21.09,0,0,0-19.6-12.8c-13.2,0-22.9,9-22.9,23.4,0,13,10.4,21.8,12.5,23.4l.5.2h.2l1.4-.4a30.08,30.08,0,0,0,5.5-2.5l.2-.4-.1-.3c-2-1.9-10.7-10.7-10.7-19.9,0-11.8,8.7-15.1,14.1-15.1s13.6,4,13.6,14.9c0,10.7-10.3,21.4-21.4,25.2s-22.8,2-22.8,2l-.5.3.3.5s9.6,5,25.8.6l2.7-.8a66.46,66.46,0,0,0,1,15,54.58,54.58,0,0,0,5.2,15.8l.3.2.2-.1,2.7-4.2.1-.4v-.3a65,65,0,0,1-2.8-15.6c.7,1.2,1.5,2.5,2.3,3.8,3,5.1,6.5,11.4,10.1,18.5l-3.3.3c1.3,2.5,2.5,5,3.8,7.7,1.1-.1,2.1-.3,3.2-.5a65.44,65.44,0,0,0,25.1-12.5,66.09,66.09,0,0,0,20-32.4,95.15,95.15,0,0,0,3.3-24.6C168.5,289,166.3,273.1,158.5,259.6ZM65.3,315.2c-.3,4.4-4.9,4.6-5.8,4.6l.2-2.2c.9-.1,3.1-.5,3.2-2.8.2-2.5-2.3-3.6-3.4-4l-.3-2.3C60.2,308.7,65.6,310.3,65.3,315.2ZM121,300.9v-.2l1.2-1.4a28,28,0,0,0,4.5-8.9,26,26,0,0,0,1.1-7.7h0a26.69,26.69,0,0,0-3.2-13.2,25.82,25.82,0,0,0-12.1-11,33.41,33.41,0,0,0-13.8-3.2h0a29.21,29.21,0,0,0-16.2,5c-4.8,3.4-8.3,8.6-10.7,14.8-2.5,6.4-4.5,11.2-6.8,14.9a13.73,13.73,0,0,1-3.6,4.2,7.53,7.53,0,0,1-4.5,1.4h-.1a9,9,0,0,1-3.9-1,12.24,12.24,0,0,1-4.6-5.5,27.54,27.54,0,0,1-1.8-10.5,53.65,53.65,0,0,1,1-10c2-10.2,8.2-17.8,16.5-22.7s18.5-7.4,28.5-7.4a58.86,58.86,0,0,1,15.3,2A59.37,59.37,0,0,1,134.7,257c7.1,7.8,11.7,17.5,11.7,28a37.65,37.65,0,0,1-1.7,11.2,38.32,38.32,0,0,1-9.1,15.8,40,40,0,0,1-18.2,10.5,49.53,49.53,0,0,1-10.7,1.7C115.2,318.5,121,309.8,121,300.9Z" transform="translate(-22.5 -230.9)"/>
</svg>